<svg version="1.1" xmlns="http://www.w3.org/2000/svg" viewBox="0 0 250 250"><desc>Created with Snap</desc><defs></defs><g transform="matrix(0.0212,0,0,0.0212,49.7612,130.8201)"><g transform="matrix(28.181,0,0,28.181,-2081.8939,-5911.1421)">
<g id="gSksei0c9hof">
	<path d="M398.63879,200.00052l-36.78085-67.04428l-21.39929-73.41541l-73.41592-21.39961L200.50656,1.63915L200,1.36172
		l-67.04344,36.78001L59.54134,59.54083L38.14186,132.9552L1.63864,199.49394l-0.27743,0.50658l36.78072,67.04453l21.39942,73.41412
		l73.41489,21.39935l66.5372,36.50232L200,398.63828l67.04172-36.77924l73.41693-21.39987l21.39865-73.41309l36.50406-66.539
		L398.63879,200.00052z M365.49286,247.05289l-8.71042-29.88306l9.1412-16.66275l0.27744-0.50656l-9.4187-17.16881l8.71066-29.88382
		L379.20798,200L365.49286,247.05289z M380.30396,203.76021l4.81308,16.51221l-17.91296,32.6512l-0.61517-2.11052
		L380.30396,203.76021z M345.23193,316.56244l-15.07812,8.27203l23.57217-42.96695l1.92709-1.05731L345.23193,316.56244z
		 M326.71875,326.71893l-42.96701,23.57205l14.97098-27.28934l18.79968-5.47977l5.47961-18.79922l27.28915-14.97067
		L326.71875,326.71893z M324.83429,330.15393l-8.27231,15.07858l-35.75223,10.42108l1.05783-1.92813L324.83429,330.15393z
		 M200,379.20844l-47.05251-13.71506l29.88313-8.71054l16.66281,9.14133L200,366.2016l16.99451-9.32321l30.00282,8.63116
		L200,379.20844z M250.78233,366.59845l2.12843,0.61215l-32.63995,17.90656l-16.51068-4.81262L250.78233,366.59845z
		 M196.23987,380.30453l-16.51082,4.81262l-32.6515-17.91272l2.10976-0.61496L196.23987,380.30453z M73.28035,326.71893
		l-23.57236-42.96747l27.28947,14.97095l5.5274,18.96286l0.16235,0.55588l18.97235,5.45792l14.58871,26.59244L73.28035,326.71893z
		 M118.13261,353.72623l1.05744,1.92737l-35.75327-10.4216l-8.27197-15.07806L118.13261,353.72623z M44.34647,280.81021
		l1.92705,1.05704l23.57198,42.96747l-15.07735-8.27151L44.34647,280.81021z M20.79113,200l13.71512-47.05161l8.71046,29.8828
		l-9.14138,16.66275l-0.27743,0.50658l9.41875,17.16853l-8.71047,29.88255L20.79113,200z M33.41014,250.8118l-0.61529,2.11053
		l-17.9126-32.65094l4.81289-16.51118L33.41014,250.8118z M19.69515,196.23979l-4.8127-16.51067l17.91266-32.6512l0.6151,2.11028
		L19.69515,196.23979z M54.76814,83.43679l15.07735-8.27152l-23.57191,42.96748l-1.92711,1.05706L54.76814,83.43679z
		 M73.28048,73.28106l42.96799-23.57255l-14.97126,27.28985L82.4776,82.47812l-5.47981,18.79922l-27.28947,14.97119
		L73.28048,73.28106z M75.16482,69.84606l8.27197-15.07806l35.75333-10.4216l-1.05745,1.92762L75.16482,69.84606z
		 M247.05199,34.50637l-29.88293,8.71053l-16.66249-9.14106L200,33.79842l-17.16881,9.41874l-29.88318-8.71053l47.05251-13.71506
		L247.05199,34.50637z M326.71863,73.28106l23.57224,42.96696l-27.28891-14.97094l-5.47955-18.79896l-18.79993-5.48001
		l-14.97083-27.28909L326.71863,73.28106z M281.86737,46.27402l-1.05762-1.92762l35.75223,10.42109l8.27216,15.07832
		L281.86737,46.27402z M355.65308,119.1898l-1.92773-1.05783l-23.57178-42.96671l15.07837,8.27229L355.65308,119.1898z
		 M307.3237,307.32376l13.06888-7.16949l-4.56763,15.67017l-15.67062,4.56781L307.3237,307.32376z M297.29614,321.22531
		l-32.67236,9.5238l39.26505-21.54089L297.29614,321.22531z M309.20792,303.88928l21.54135-39.26608l-9.52362,32.673
		L309.20792,303.88928z M305.77304,305.7735l-50.48621,27.69702l-55.65616,16.22321l-53.29005-15.33029l-52.11431-28.59018
		l-27.69849-50.4884l-16.11463-55.28459l16.11527-55.28561L94.2267,94.2265l50.48685-27.69727l55.28619-16.1156l55.28697,16.1156
		l50.48666,27.69727l27.69757,50.48788l16.1149,55.28613l-16.11469,55.2851L305.77304,305.7735z M199.63536,351.88467
		l14.48891,4.16812L200,363.8013l-14.3116-7.85126L199.63536,351.88467z M183.07909,354.51843l-28.34781-15.55173l41.11916,11.82904
		L183.07909,354.51843z M203.4156,350.78265l43.34534-12.63461l-30.01869,16.46829L203.4156,350.78265z M92.67604,307.32376
		l7.5574,13.7757l-15.85081-4.55988l-4.77622-16.38583L92.67604,307.32376z M78.77334,297.29572l-9.52407-32.67432
		l21.54237,39.26764L78.77334,297.29572z M96.11072,309.20822l41.02835,22.5083l-34.05465-9.79688L96.11072,309.20822z
		 M48.22117,200l-4.17172,14.31178l-7.85126-14.31126l7.85152-14.3118L48.22117,200z M45.4811,183.07961l16.36997-29.83888
		l-12.53392,42.99933L45.4811,183.07961z M49.31721,203.76021l12.53405,43.00035l-16.37029-29.83939L49.31721,203.76021z
		 M92.67611,92.67624l-13.06875,7.1695l4.5677-15.67017l15.67049-4.56783L92.67611,92.67624z M102.70379,78.77468l32.67283-9.5238
		L96.11097,90.79177L102.70379,78.77468z M90.79183,96.11097l-21.54147,39.26585l9.52388-32.67303L90.79183,96.11097z
		 M199.99974,48.22169l-14.31126-4.17172L200,36.1987l14.31134,7.85127L199.99974,48.22169z M216.92059,45.4813l29.84023,16.37068
		l-43.00093-12.53444L216.92059,45.4813z M196.23961,49.31754l-43.00003,12.53418l29.83957-16.37016L196.23961,49.31754z
		 M307.32306,92.67572l-7.16907-13.06798l15.67096,4.56783l4.5675,15.66991L307.32306,92.67572z M321.22559,102.70379
		l9.52411,32.67481l-21.5423-39.26814L321.22559,102.70379z M303.88904,90.79177l-39.26431-21.54038l32.67175,9.52329
		L303.88904,90.79177z M350.68188,203.76071l3.83612,13.16046l-16.3696,29.83861L350.68188,203.76071z M351.77792,200.00052
		l4.1716-14.31154l7.85126,14.31154l-7.85132,14.31126L351.77792,200.00052z M350.68195,196.24031l-12.53366-42.99983
		l16.36978,29.83913L350.68195,196.24031z M335.42703,143.90469l-11.59195-39.76932l28.34024,15.54764l7.72693,14.08444
		l4.49475,15.42023l-9.04614,31.03465L335.42703,143.90469z M295.86496,76.16531l-39.76633-11.59144l-36.32025-19.92537
		l31.03368-9.04602l15.4185,4.49411l14.08688,7.72822L295.86496,76.16531z M149.18794,35.60274l31.03394,9.04601l-36.31905,19.92461
		l-39.76746,11.59169l15.54815-28.34101l14.08433-7.72668L149.18794,35.60274z M76.16473,104.13538l-11.59176,39.76752
		l-19.92486,36.31892l-9.04582-31.03362l4.49501-15.42075l7.72655-14.08393L76.16473,104.13538z M44.64811,219.77818
		l19.92461,36.31865l11.59162,39.76755l-28.34088-15.54791l-7.72585-14.08264l-4.49539-15.42227L44.64811,219.77818z
		 M104.51055,324.51929l41.01929,11.80026l34.69145,19.03195l-31.03387,9.04602l-15.41893-4.49463l-14.08516-7.72693
		L104.51055,324.51929z M219.61263,355.4422l36.48494-20.01581l39.767-11.59143l-15.54788,28.34048l-14.08612,7.72797
		l-15.45279,4.50412L219.61263,355.4422z M323.83514,295.86462l11.59149-39.76727l19.92435-36.31815l9.04584,31.03363
		l-4.49493,15.42099l-7.72617,14.08316L323.83514,295.86462z M366.58908,149.18768l0.61511-2.11052l17.91266,32.65092
		l-4.8129,16.5117L366.58908,149.18768z M365.77274,144.46803l-0.27963,0.95944l-0.91373-3.13469L365.77274,144.46803z
		 M355.6098,121.56722l0.8764,0.48062l0.69449,2.38281L355.6098,121.56722z M344.39874,80.57926l-16.12967-8.84898
		l-8.84879-16.12947l19.34091,5.63748L344.39874,80.57926z M277.95215,43.51334l0.48096,0.87673l-2.86459-1.57159
		L277.95215,43.51334z M254.57227,34.50637l0.9588-0.27948l2.17392,1.19243L254.57227,34.50637z M252.92188,32.7953
		l-2.10962,0.61497l-68.47394-19.95903L200,3.762L252.92188,32.7953z M179.72905,14.88283l16.51138,4.81264l-53.94701,15.72462
		L179.72905,14.88283z M121.56773,44.38956l0.48069-0.87621l2.3823-0.69435L121.56773,44.38956z M61.2388,61.23829l19.33969-5.63722
		l-8.8486,16.12947l-16.12863,8.84821L61.2388,61.23829z M43.51334,122.0481l0.87577-0.48037l-1.56986,2.86138L43.51334,122.0481z
		 M34.50618,145.42799l-0.27961-0.95944l1.1934-2.17526L34.50618,145.42799z M13.45098,182.3385L18.59911,200l-5.14832,17.66202
		l-9.6893-17.6615L13.45098,182.3385z M34.22631,255.53171l0.27981-0.95996l0.91423,3.13623L34.22631,255.53171z
		 M44.38905,278.43225l-0.8757-0.48035l-0.69403-2.38101L44.38905,278.43225z M55.60126,319.42126l16.12863,8.84821l8.8486,16.12946
		l-19.33969-5.63721L55.60126,319.42126z M122.04836,356.48691l-0.48068-0.87622l2.86273,1.57031L122.04836,356.48691z
		 M145.42715,365.49362l-0.95886,0.27948l-2.1741-1.19293L145.42715,365.49362z M182.33832,386.54877L200,381.40063
		l17.66156,5.14813L200,396.23801L182.33832,386.54877z M255.52882,365.77438l-0.96606-0.27792l3.14223-0.91577L255.52882,365.77438
		z M278.43253,355.60992l-0.48108,0.87698l-2.38385,0.69485L278.43253,355.60992z M338.7612,338.76172l-19.34091,5.63748
		l8.84906-16.12973l16.12939-8.84872L338.7612,338.76172z M356.48621,277.95215l-0.8757,0.48038l1.56961-2.86111
		L356.48621,277.95215z M365.49286,254.57329l0.27972,0.95944l-1.19357,2.17577L365.49286,254.57329z M386.54849,217.66304
		L381.39999,200l5.14832-17.66252l9.69022,17.66304L386.54849,217.66304z" fill="#bbe5e8" style=""></path>
</g>


<desc>Created with Snap</desc><defs></defs></g><g><g transform="matrix(1.024,0,0,-1.024,0,0)"><path d="M281 689Q409 689 479 635Q549 582 549 476Q549 363 476 308Q403 253 282 253L195 253L195 0L100 0L100 689L281 689ZM278 328Q361 328 404 360Q448 392 448 475Q448 549 404 582Q361 615 280 615L195 615L195 328L278 328ZM1074 279Q1074 256 1072 232L736 232Q742 145 780 104Q818 63 878 63Q916 63 948 74Q980 85 1015 109L1055 54Q971 -12 871 -12Q761 -12 699 60Q638 132 638 258Q638 340 664 403Q691 467 740 503Q790 539 857 539Q962 539 1018 470Q1074 401 1074 279ZM983 300L983 306Q983 384 952 425Q921 466 859 466Q746 466 736 300L983 300ZM1419 539Q1530 539 1591 465Q1653 391 1653 264Q1653 182 1625 119Q1597 57 1544 22Q1491 -12 1418 -12Q1307 -12 1245 62Q1183 136 1183 263Q1183 345 1211 407Q1239 470 1292 504Q1345 539 1419 539ZM1419 465Q1282 465 1282 263Q1282 62 1418 62Q1554 62 1554 264Q1554 465 1419 465ZM2047 539Q2148 539 2195 467Q2242 395 2242 264Q2242 140 2188 64Q2134 -12 2035 -12Q1947 -12 1897 48L1897 -202L1805 -213L1805 527L1884 527L1891 456Q1920 496 1961 517Q2002 539 2047 539ZM2013 63Q2143 63 2143 264Q2143 466 2024 466Q1985 466 1953 443Q1921 420 1897 384L1897 127Q1917 96 1947 79Q1977 63 2013 63ZM2504 -12Q2453 -12 2423 18Q2394 49 2394 104L2394 739L2486 750L2486 106Q2486 84 2493 74Q2501 64 2519 64Q2538 64 2553 70L2577 6Q2544 -12 2504 -12ZM3090 279Q3090 256 3088 232L2752 232Q2758 145 2796 104Q2834 63 2894 63Q2932 63 2964 74Q2996 85 3031 109L3071 54Q2987 -12 2887 -12Q2777 -12 2715 60Q2654 132 2654 258Q2654 340 2680 403Q2707 467 2756 503Q2806 539 2873 539Q2978 539 3034 470Q3090 401 3090 279ZM2999 300L2999 306Q2999 384 2968 425Q2937 466 2875 466Q2762 466 2752 300L2999 300ZM3483 701Q3545 701 3587 685Q3630 669 3674 633L3622 572Q3559 623 3489 623Q3403 623 3350 557Q3298 491 3298 345Q3298 203 3350 135Q3402 68 3488 68Q3532 68 3565 83Q3598 98 3635 125L3682 65Q3650 32 3600 10Q3550 -12 3485 -12Q3401 -12 3335 29Q3270 71 3233 151Q3197 232 3197 345Q3197 458 3235 538Q3273 619 3338 660Q3403 701 3483 701ZM3995 539Q4106 539 4167 465Q4229 391 4229 264Q4229 182 4201 119Q4173 57 4120 22Q4067 -12 3994 -12Q3883 -12 3821 62Q3759 136 3759 263Q3759 345 3787 407Q3815 470 3868 504Q3921 539 3995 539ZM3995 465Q3858 465 3858 263Q3858 62 3994 62Q4130 62 4130 264Q4130 465 3995 465ZM4629 539Q4701 539 4741 496Q4782 453 4782 378L4782 0L4690 0L4690 365Q4690 421 4669 444Q4648 467 4607 467Q4565 467 4533 443Q4501 419 4473 374L4473 0L4381 0L4381 527L4460 527L4468 449Q4496 491 4537 515Q4579 539 4629 539ZM5215 539Q5287 539 5327 496Q5368 453 5368 378L5368 0L5276 0L5276 365Q5276 421 5255 444Q5234 467 5193 467Q5151 467 5119 443Q5087 419 5059 374L5059 0L4967 0L4967 527L5046 527L5054 449Q5082 491 5123 515Q5165 539 5215 539ZM5951 279Q5951 256 5949 232L5613 232Q5619 145 5657 104Q5695 63 5755 63Q5793 63 5825 74Q5857 85 5892 109L5932 54Q5848 -12 5748 -12Q5638 -12 5576 60Q5515 132 5515 258Q5515 340 5541 403Q5568 467 5617 503Q5667 539 5734 539Q5839 539 5895 470Q5951 401 5951 279ZM5860 300L5860 306Q5860 384 5829 425Q5798 466 5736 466Q5623 466 5613 300L5860 300ZM6290 539Q6337 539 6376 525Q6415 512 6451 482L6407 424Q6379 444 6352 453Q6326 463 6294 463Q6230 463 6194 412Q6159 361 6159 261Q6159 161 6194 113Q6229 66 6294 66Q6325 66 6351 75Q6377 85 6409 106L6451 46Q6379 -12 6290 -12Q6183 -12 6121 60Q6060 132 6060 259Q6060 343 6088 406Q6116 469 6167 504Q6219 539 6290 539ZM6807 85L6842 24Q6790 -12 6724 -12Q6657 -12 6619 26Q6582 65 6582 138L6582 456L6490 456L6490 527L6582 527L6582 646L6674 657L6674 527L6799 527L6789 456L6674 456L6674 142Q6674 101 6688 82Q6703 64 6737 64Q6768 64 6807 85Z" fill="#0560af" style=""></path></g></g></g></svg>