<svg version="1.1" xmlns="http://www.w3.org/2000/svg" viewBox="0 0 250 250"><desc>Created with Snap</desc><defs></defs><g transform="matrix(0.0248,0,0,0.0248,66.6113,131.8618)"><g transform="matrix(28.5055,0,0,28.5055,-2733.3713,-1716.0347)"><g><path d="M74.265,60.41c0.964,2.929,1.401,5.966,1.261,9.015c2.584-0.989,5.013-2.49,7.095-4.572c0.244-0.244,0.41-0.527,0.637-0.78   c0.018-0.341,0.105-0.659,0.105-1.004c0-2.924-0.646-5.691-1.764-8.203C79.522,57.139,77.045,59.022,74.265,60.41z" fill="#e8715b" style=""></path><path d="M54.863,81.605c2.509,1.112,5.276,1.759,8.2,1.759c0.349,0,0.664-0.085,1.004-0.103c0.253-0.227,0.541-0.393,0.781-0.637   c2.08-2.085,3.585-4.516,4.572-7.104c-3.049,0.14-6.086-0.292-9.01-1.257C59.022,77.049,57.137,79.528,54.863,81.605z" fill="#e8715b" style=""></path><path d="M40.588,74.265c-2.925,0.965-5.965,1.396-9.013,1.257c0.988,2.588,2.49,5.023,4.573,7.104   c0.242,0.244,0.528,0.41,0.779,0.637c0.339,0.018,0.661,0.103,1.003,0.103c2.926,0,5.691-0.646,8.202-1.759   C43.861,79.528,41.976,77.049,40.588,74.265z" fill="#e8715b" style=""></path><path d="M26.731,60.41c-2.781-1.388-5.26-3.271-7.337-5.545c-1.112,2.512-1.758,5.279-1.758,8.203c0,0.345,0.085,0.663,0.1,1.004   c0.229,0.253,0.395,0.536,0.639,0.78c2.082,2.082,4.515,3.583,7.098,4.572C25.333,66.376,25.767,63.339,26.731,60.41z" fill="#e8715b" style=""></path><path d="M26.731,40.592c-0.964-2.929-1.398-5.966-1.259-9.016c-2.583,0.989-5.014,2.491-7.098,4.572   c-0.244,0.245-0.41,0.528-0.639,0.781c-0.015,0.341-0.1,0.659-0.1,1.004c0,2.924,0.646,5.69,1.76,8.205   C21.471,43.863,23.95,41.979,26.731,40.592z" fill="#e8715b" style=""></path><path d="M46.132,19.397c-2.511-1.114-5.275-1.76-8.202-1.76c-0.342,0-0.664,0.084-1.003,0.102   c-0.251,0.228-0.537,0.393-0.779,0.638c-2.083,2.08-3.585,4.515-4.573,7.103c3.048-0.14,6.088,0.293,9.013,1.257   C41.976,23.952,43.861,21.475,46.132,19.397z" fill="#e8715b" style=""></path><path d="M60.41,26.736c2.924-0.964,5.961-1.396,9.01-1.257c-0.99-2.588-2.492-5.017-4.572-7.103   c-0.24-0.245-0.528-0.41-0.781-0.638c-0.34-0.018-0.659-0.102-1.004-0.102c-2.924,0-5.691,0.646-8.2,1.76   C57.137,21.475,59.022,23.952,60.41,26.736z" fill="#e8715b" style=""></path><path d="M82.621,36.148c-2.082-2.081-4.511-3.583-7.095-4.572c0.14,3.05-0.297,6.087-1.261,9.016   c2.78,1.388,5.257,3.271,7.334,5.547c1.117-2.515,1.764-5.281,1.764-8.205c0-0.345-0.088-0.663-0.105-1.004   C83.031,36.677,82.865,36.394,82.621,36.148z" fill="#e8715b" style=""></path><path d="M58.228,63.068c0-0.166-0.048-0.319-0.052-0.484c-1.061-0.21-2.09-0.498-3.099-0.834c-0.462,0.921-0.89,1.851-1.469,2.719   c0.113,0.122,0.19,0.267,0.309,0.384c1.143,1.14,2.404,2.069,3.718,2.881C57.993,66.228,58.228,64.683,58.228,63.068z" fill="#e8715b" style=""></path><path d="M43.362,67.733c1.313-0.812,2.574-1.741,3.715-2.881c0.12-0.117,0.199-0.262,0.312-0.384   c-0.581-0.868-1.008-1.798-1.471-2.719c-1.008,0.336-2.038,0.624-3.1,0.834c-0.002,0.165-0.048,0.318-0.048,0.484   C42.771,64.683,43.006,66.228,43.362,67.733z" fill="#e8715b" style=""></path><path d="M36.148,53.922c-1.139,1.14-2.068,2.4-2.88,3.717c1.503,0.355,3.051,0.59,4.663,0.59c0.166,0,0.318-0.044,0.484-0.048   c0.209-1.06,0.495-2.094,0.833-3.102c-0.918-0.463-1.848-0.886-2.716-1.471C36.411,53.726,36.269,53.805,36.148,53.922z" fill="#e8715b" style=""></path><path d="M38.415,42.821c-0.166-0.006-0.319-0.05-0.484-0.05c-1.612,0-3.159,0.236-4.663,0.591c0.812,1.318,1.739,2.578,2.88,3.717   c0.12,0.118,0.262,0.196,0.384,0.314c0.868-0.583,1.797-1.008,2.716-1.471C38.91,44.916,38.625,43.881,38.415,42.821z" fill="#e8715b" style=""></path><path d="M42.771,37.934c0,0.166,0.046,0.318,0.048,0.484c1.062,0.21,2.092,0.498,3.1,0.834c0.462-0.921,0.89-1.851,1.471-2.719   c-0.113-0.123-0.192-0.267-0.312-0.385c-1.141-1.139-2.402-2.066-3.715-2.879C43.006,34.774,42.771,36.319,42.771,37.934z" fill="#e8715b" style=""></path><path d="M57.635,33.27c-1.314,0.812-2.575,1.74-3.718,2.879c-0.118,0.118-0.195,0.262-0.309,0.385   c0.579,0.868,1.007,1.798,1.469,2.719c1.008-0.336,2.038-0.624,3.099-0.834c0.004-0.166,0.052-0.318,0.052-0.484   C58.228,36.319,57.993,34.774,57.635,33.27z" fill="#e8715b" style=""></path><path d="M63.063,42.771c-0.166,0-0.314,0.044-0.48,0.05c-0.209,1.06-0.498,2.095-0.838,3.102c0.921,0.463,1.851,0.888,2.719,1.471   c0.122-0.118,0.266-0.196,0.384-0.314c1.139-1.139,2.067-2.398,2.883-3.717C66.226,43.008,64.678,42.771,63.063,42.771z" fill="#e8715b" style=""></path><path d="M48.074,49.493c-0.035,0.676-0.035,1.339,0,2.012c0.452,0.502,0.921,0.969,1.42,1.423c0.671,0.034,1.335,0.034,2.007,0   c0.5-0.454,0.972-0.926,1.423-1.423c0.035-0.673,0.033-1.336,0-2.008c-0.451-0.502-0.921-0.969-1.42-1.423   c-0.673-0.035-1.34-0.035-2.012,0C48.995,48.528,48.524,48.995,48.074,49.493z" fill="#e8715b" style=""></path><path d="M64.464,53.608c-0.868,0.585-1.798,1.008-2.719,1.471c0.34,1.008,0.628,2.042,0.838,3.102   c0.166,0.004,0.314,0.048,0.48,0.048c1.615,0,3.163-0.234,4.668-0.59c-0.816-1.316-1.745-2.577-2.883-3.717   C64.73,53.805,64.586,53.726,64.464,53.608z" fill="#e8715b" style=""></path><path d="M72.271,55.926c2.583-1.327,4.827-3.173,6.615-5.425c-1.788-2.252-4.031-4.098-6.615-5.425   c-1.091,1.929-2.357,3.784-3.998,5.425C69.914,52.142,71.179,53.996,72.271,55.926z" fill="#e8715b" style=""></path><path d="M62.138,31.245c0.585,2.133,0.925,4.367,0.925,6.688c2.322,0,4.555,0.341,6.689,0.93c0.868-2.745,1.143-5.603,0.82-8.436   C67.74,30.104,64.879,30.375,62.138,31.245z" fill="#e8715b" style=""></path><path d="M50.498,22.11c-2.253,1.794-4.099,4.033-5.424,6.616c1.927,1.096,3.782,2.361,5.424,4.002   c1.644-1.641,3.498-2.906,5.426-4.002C54.597,26.144,52.752,23.904,50.498,22.11z" fill="#e8715b" style=""></path><path d="M37.931,37.934c0-2.321,0.34-4.556,0.927-6.688c-2.74-0.87-5.601-1.141-8.432-0.817c-0.323,2.833-0.05,5.69,0.817,8.436   C33.377,38.274,35.612,37.934,37.931,37.934z" fill="#e8715b" style=""></path><path d="M22.108,50.501c1.794,2.252,4.034,4.098,6.618,5.425c1.091-1.93,2.356-3.784,3.999-5.425   c-1.643-1.641-2.908-3.496-4.001-5.425C26.143,46.403,23.902,48.249,22.108,50.501z" fill="#e8715b" style=""></path><path d="M38.858,69.757c-0.587-2.133-0.927-4.367-0.927-6.688c-2.319,0-4.553-0.341-6.688-0.93   c-0.868,2.745-1.14,5.604-0.817,8.436C33.257,70.896,36.118,70.627,38.858,69.757z" fill="#e8715b" style=""></path><path d="M50.498,78.891c2.255-1.793,4.1-4.032,5.426-6.616c-1.929-1.095-3.782-2.36-5.426-4c-1.642,1.64-3.497,2.905-5.424,4   C46.401,74.858,48.245,77.098,50.498,78.891z" fill="#e8715b" style=""></path><path d="M63.063,63.068c0,2.321-0.34,4.556-0.925,6.688c2.741,0.87,5.602,1.139,8.435,0.817c0.323-2.832,0.048-5.695-0.82-8.436   C67.618,62.728,65.385,63.068,63.063,63.068z" fill="#e8715b" style=""></path><path d="M87.425,44.026c-0.571,2.304-1.457,4.476-2.614,6.475c1.157,1.999,2.043,4.177,2.614,6.475   C88.844,52.771,88.844,48.231,87.425,44.026z" fill="#e8715b" style=""></path><path d="M81.233,29.05c-1.981-4.041-5.244-7.301-9.286-9.282c1.249,2.063,2.147,4.268,2.745,6.541   C76.966,26.907,79.165,27.802,81.233,29.05z" fill="#e8715b" style=""></path><path d="M56.971,13.576c-4.204-1.418-8.742-1.418-12.947,0c2.3,0.571,4.473,1.453,6.473,2.614   C52.5,15.029,54.671,14.147,56.971,13.576z" fill="#e8715b" style=""></path><path d="M29.047,19.768c-4.042,1.981-7.301,5.241-9.284,9.282c2.066-1.248,4.268-2.143,6.541-2.741   C26.904,24.035,27.798,21.831,29.047,19.768z" fill="#e8715b" style=""></path><path d="M13.571,56.973c0.574-2.3,1.458-4.473,2.616-6.472c-1.159-1.999-2.04-4.171-2.616-6.472   C12.158,48.231,12.158,52.771,13.571,56.973z" fill="#e8715b" style=""></path><path d="M19.765,71.952c1.981,4.041,5.24,7.297,9.279,9.282c-1.248-2.068-2.141-4.269-2.741-6.542   C24.031,74.095,21.829,73.2,19.765,71.952z" fill="#e8715b" style=""></path><path d="M44.024,87.426c4.205,1.418,8.746,1.418,12.947,0c-2.3-0.572-4.472-1.453-6.474-2.614   C48.498,85.973,46.324,86.854,44.024,87.426z" fill="#e8715b" style=""></path><path d="M71.952,81.234c4.037-1.985,7.3-5.241,9.281-9.282c-2.068,1.248-4.267,2.143-6.541,2.74   C74.095,76.966,73.2,79.166,71.952,81.234z" fill="#e8715b" style=""></path></g><desc>Created with Snap</desc><defs></defs></g><g><g transform="matrix(1.024,0,0,-1.024,0,0)"><path d="M124 700L361 700Q417 700 460 674Q503 649 528 604Q553 559 553 501Q553 443 528 396Q503 350 460 323Q417 296 361 296L149 296L154 306L154 30Q154 18 145 9Q136 0 124 0Q110 0 102 9Q94 18 94 30L94 670Q94 682 103 691Q112 700 124 700ZM148 354L361 354Q400 354 429 373Q458 393 474 426Q491 460 491 501Q491 542 474 573Q458 605 429 623Q400 641 361 641L149 641L154 650L154 348L148 354ZM902 -10Q825 -10 766 23Q707 56 674 115Q641 174 641 253Q641 338 674 398Q708 458 761 490Q815 523 875 523Q919 523 960 507Q1002 492 1034 461Q1066 431 1086 387Q1106 343 1107 285Q1107 273 1098 264Q1089 256 1077 256L676 256L664 310L1058 310L1045 298L1045 318Q1040 365 1014 398Q988 431 951 448Q915 465 875 465Q845 465 813 453Q782 441 756 415Q731 390 715 350Q699 311 699 257Q699 198 723 150Q747 102 792 74Q837 46 901 46Q935 46 963 56Q991 66 1012 82Q1034 99 1048 117Q1059 126 1069 126Q1080 126 1087 118Q1095 110 1095 100Q1095 88 1085 79Q1055 43 1007 16Q959 -10 902 -10ZM1703 256Q1703 180 1669 119Q1636 59 1579 24Q1522 -10 1450 -10Q1379 -10 1321 24Q1264 59 1230 119Q1197 180 1197 256Q1197 333 1230 393Q1264 453 1321 488Q1379 523 1450 523Q1522 523 1579 488Q1636 453 1669 393Q1703 333 1703 256ZM1643 256Q1643 317 1618 364Q1593 412 1549 439Q1506 467 1450 467Q1395 467 1351 439Q1308 412 1282 364Q1257 317 1257 256Q1257 195 1282 148Q1308 101 1351 73Q1395 46 1450 46Q1506 46 1549 73Q1593 101 1618 148Q1643 195 1643 256ZM2069 515Q2137 515 2189 481Q2242 448 2273 389Q2304 331 2304 255Q2304 179 2273 120Q2242 61 2189 27Q2136 -7 2070 -7Q2035 -7 2003 3Q1972 14 1946 32Q1920 50 1900 74Q1880 99 1868 128L1886 141L1886 -170Q1886 -182 1877 -191Q1869 -200 1856 -200Q1843 -200 1834 -191Q1826 -182 1826 -170L1826 482Q1826 495 1834 504Q1842 513 1856 513Q1869 513 1877 504Q1886 495 1886 482L1886 374L1872 382Q1882 413 1901 437Q1921 462 1947 479Q1973 497 2004 506Q2035 515 2069 515ZM2064 459Q2010 459 1969 432Q1928 406 1904 360Q1881 315 1881 255Q1881 196 1904 149Q1928 102 1969 75Q2010 49 2064 49Q2117 49 2157 75Q2198 102 2222 149Q2246 196 2246 255Q2246 314 2222 360Q2198 406 2157 432Q2117 459 2064 459ZM2494 710L2494 30Q2494 18 2485 9Q2476 0 2464 0Q2451 0 2442 9Q2434 18 2434 30L2434 710Q2434 722 2443 731Q2452 740 2464 740Q2477 740 2485 731Q2494 722 2494 710ZM2885 -10Q2808 -10 2749 23Q2690 56 2657 115Q2624 174 2624 253Q2624 338 2657 398Q2691 458 2744 490Q2798 523 2858 523Q2902 523 2943 507Q2985 492 3017 461Q3049 431 3069 387Q3089 343 3090 285Q3090 273 3081 264Q3072 256 3060 256L2659 256L2647 310L3041 310L3028 298L3028 318Q3023 365 2997 398Q2971 431 2934 448Q2898 465 2858 465Q2828 465 2796 453Q2765 441 2739 415Q2714 390 2698 350Q2682 311 2682 257Q2682 198 2706 150Q2730 102 2775 74Q2820 46 2884 46Q2918 46 2946 56Q2974 66 2995 82Q3017 99 3031 117Q3042 126 3052 126Q3063 126 3070 118Q3078 110 3078 100Q3078 88 3068 79Q3038 43 2990 16Q2942 -10 2885 -10ZM3740 648Q3752 640 3754 627Q3756 615 3748 603Q3741 594 3730 593Q3719 592 3709 597Q3671 622 3627 636Q3584 650 3534 650Q3473 650 3420 628Q3368 607 3329 566Q3290 526 3268 471Q3247 416 3247 350Q3247 282 3269 226Q3291 171 3330 131Q3370 91 3422 70Q3474 49 3534 49Q3583 49 3626 63Q3670 77 3708 101Q3718 107 3729 105Q3741 104 3748 94Q3757 83 3754 70Q3752 58 3741 51Q3716 35 3682 21Q3648 7 3610 -2Q3572 -10 3534 -10Q3462 -10 3399 16Q3336 42 3287 89Q3238 137 3210 203Q3183 269 3183 350Q3183 428 3210 493Q3237 559 3285 607Q3333 655 3397 682Q3461 709 3534 709Q3591 709 3644 693Q3697 677 3740 648ZM4339 256Q4339 180 4305 119Q4272 59 4215 24Q4158 -10 4086 -10Q4015 -10 3957 24Q3900 59 3866 119Q3833 180 3833 256Q3833 333 3866 393Q3900 453 3957 488Q4015 523 4086 523Q4158 523 4215 488Q4272 453 4305 393Q4339 333 4339 256ZM4279 256Q4279 317 4254 364Q4229 412 4185 439Q4142 467 4086 467Q4031 467 3987 439Q3944 412 3918 364Q3893 317 3893 256Q3893 195 3918 148Q3944 101 3987 73Q4031 46 4086 46Q4142 46 4185 73Q4229 101 4254 148Q4279 195 4279 256ZM4703 523Q4769 523 4808 496Q4848 470 4865 424Q4883 379 4883 324L4883 30Q4883 18 4874 9Q4865 0 4853 0Q4839 0 4831 9Q4823 18 4823 30L4823 321Q4823 361 4810 394Q4797 427 4767 447Q4738 467 4690 467Q4647 467 4608 447Q4570 427 4546 394Q4522 361 4522 321L4522 30Q4522 18 4513 9Q4504 0 4492 0Q4478 0 4470 9Q4462 18 4462 30L4462 478Q4462 490 4470 499Q4479 508 4492 508Q4505 508 4513 499Q4522 490 4522 478L4522 394L4499 358Q4501 390 4519 419Q4538 449 4567 472Q4596 496 4631 509Q4667 523 4703 523ZM5281 523Q5347 523 5386 496Q5426 470 5443 424Q5461 379 5461 324L5461 30Q5461 18 5452 9Q5443 0 5431 0Q5417 0 5409 9Q5401 18 5401 30L5401 321Q5401 361 5388 394Q5375 427 5345 447Q5316 467 5268 467Q5225 467 5186 447Q5148 427 5124 394Q5100 361 5100 321L5100 30Q5100 18 5091 9Q5082 0 5070 0Q5056 0 5048 9Q5040 18 5040 30L5040 478Q5040 490 5048 499Q5057 508 5070 508Q5083 508 5091 499Q5100 490 5100 478L5100 394L5077 358Q5079 390 5097 419Q5116 449 5145 472Q5174 496 5209 509Q5245 523 5281 523ZM5845 -10Q5768 -10 5709 23Q5650 56 5617 115Q5584 174 5584 253Q5584 338 5617 398Q5651 458 5704 490Q5758 523 5818 523Q5862 523 5903 507Q5945 492 5977 461Q6009 431 6029 387Q6049 343 6050 285Q6050 273 6041 264Q6032 256 6020 256L5619 256L5607 310L6001 310L5988 298L5988 318Q5983 365 5957 398Q5931 431 5894 448Q5858 465 5818 465Q5788 465 5756 453Q5725 441 5699 415Q5674 390 5658 350Q5642 311 5642 257Q5642 198 5666 150Q5690 102 5735 74Q5780 46 5844 46Q5878 46 5906 56Q5934 66 5955 82Q5977 99 5991 117Q6002 126 6012 126Q6023 126 6030 118Q6038 110 6038 100Q6038 88 6028 79Q5998 43 5950 16Q5902 -10 5845 -10ZM6395 523Q6443 523 6483 512Q6523 502 6547 484Q6572 466 6572 445Q6572 435 6564 425Q6557 416 6546 416Q6533 416 6525 422Q6518 428 6511 436Q6504 444 6490 451Q6477 457 6452 462Q6428 467 6398 467Q6342 467 6297 439Q6252 411 6226 363Q6200 316 6200 257Q6200 197 6224 149Q6249 101 6293 73Q6338 46 6396 46Q6436 46 6458 53Q6481 60 6496 69Q6516 80 6524 90Q6533 101 6547 101Q6559 101 6566 93Q6573 86 6573 74Q6573 58 6549 38Q6526 19 6485 4Q6444 -10 6390 -10Q6316 -10 6259 25Q6203 60 6171 120Q6140 181 6140 257Q6140 330 6172 390Q6204 450 6261 486Q6318 523 6395 523ZM6655 509L6888 509Q6900 509 6908 500Q6916 492 6916 480Q6916 469 6908 461Q6900 453 6888 453L6655 453Q6643 453 6634 461Q6626 470 6626 481Q6626 493 6634 501Q6643 509 6655 509ZM6758 650Q6771 650 6779 641Q6788 632 6788 620L6788 118Q6788 90 6795 76Q6803 62 6815 57Q6827 53 6839 53Q6847 53 6853 55Q6860 58 6868 58Q6877 58 6883 51Q6890 44 6890 33Q6890 19 6874 9Q6858 0 6836 0Q6827 0 6809 1Q6791 3 6772 12Q6753 22 6740 46Q6728 70 6728 115L6728 620Q6728 632 6736 641Q6745 650 6758 650Z" fill="#072a55" style=""></path></g></g></g></svg>