<svg version="1.1" xmlns="http://www.w3.org/2000/svg" viewBox="0 0 250 250"><desc>Created with Snap</desc><defs></defs><g transform="matrix(0.0493,0,0,0.0493,12.5227,191.8236)"><g transform="matrix(24.4722,0,0,24.4722,1045.1056,-3157.7931)"><g><path d="M74.265,60.41c0.964,2.929,1.401,5.966,1.261,9.015c2.584-0.989,5.013-2.49,7.095-4.572c0.244-0.244,0.41-0.527,0.637-0.78   c0.018-0.341,0.105-0.659,0.105-1.004c0-2.924-0.646-5.691-1.764-8.203C79.522,57.139,77.045,59.022,74.265,60.41z" fill="#7adac0" style=""></path><path d="M54.863,81.605c2.509,1.112,5.276,1.759,8.2,1.759c0.349,0,0.664-0.085,1.004-0.103c0.253-0.227,0.541-0.393,0.781-0.637   c2.08-2.085,3.585-4.516,4.572-7.104c-3.049,0.14-6.086-0.292-9.01-1.257C59.022,77.049,57.137,79.528,54.863,81.605z" fill="#7adac0" style=""></path><path d="M40.588,74.265c-2.925,0.965-5.965,1.396-9.013,1.257c0.988,2.588,2.49,5.023,4.573,7.104   c0.242,0.244,0.528,0.41,0.779,0.637c0.339,0.018,0.661,0.103,1.003,0.103c2.926,0,5.691-0.646,8.202-1.759   C43.861,79.528,41.976,77.049,40.588,74.265z" fill="#7adac0" style=""></path><path d="M26.731,60.41c-2.781-1.388-5.26-3.271-7.337-5.545c-1.112,2.512-1.758,5.279-1.758,8.203c0,0.345,0.085,0.663,0.1,1.004   c0.229,0.253,0.395,0.536,0.639,0.78c2.082,2.082,4.515,3.583,7.098,4.572C25.333,66.376,25.767,63.339,26.731,60.41z" fill="#7adac0" style=""></path><path d="M26.731,40.592c-0.964-2.929-1.398-5.966-1.259-9.016c-2.583,0.989-5.014,2.491-7.098,4.572   c-0.244,0.245-0.41,0.528-0.639,0.781c-0.015,0.341-0.1,0.659-0.1,1.004c0,2.924,0.646,5.69,1.76,8.205   C21.471,43.863,23.95,41.979,26.731,40.592z" fill="#7adac0" style=""></path><path d="M46.132,19.397c-2.511-1.114-5.275-1.76-8.202-1.76c-0.342,0-0.664,0.084-1.003,0.102   c-0.251,0.228-0.537,0.393-0.779,0.638c-2.083,2.08-3.585,4.515-4.573,7.103c3.048-0.14,6.088,0.293,9.013,1.257   C41.976,23.952,43.861,21.475,46.132,19.397z" fill="#7adac0" style=""></path><path d="M60.41,26.736c2.924-0.964,5.961-1.396,9.01-1.257c-0.99-2.588-2.492-5.017-4.572-7.103   c-0.24-0.245-0.528-0.41-0.781-0.638c-0.34-0.018-0.659-0.102-1.004-0.102c-2.924,0-5.691,0.646-8.2,1.76   C57.137,21.475,59.022,23.952,60.41,26.736z" fill="#7adac0" style=""></path><path d="M82.621,36.148c-2.082-2.081-4.511-3.583-7.095-4.572c0.14,3.05-0.297,6.087-1.261,9.016   c2.78,1.388,5.257,3.271,7.334,5.547c1.117-2.515,1.764-5.281,1.764-8.205c0-0.345-0.088-0.663-0.105-1.004   C83.031,36.677,82.865,36.394,82.621,36.148z" fill="#7adac0" style=""></path><path d="M58.228,63.068c0-0.166-0.048-0.319-0.052-0.484c-1.061-0.21-2.09-0.498-3.099-0.834c-0.462,0.921-0.89,1.851-1.469,2.719   c0.113,0.122,0.19,0.267,0.309,0.384c1.143,1.14,2.404,2.069,3.718,2.881C57.993,66.228,58.228,64.683,58.228,63.068z" fill="#7adac0" style=""></path><path d="M43.362,67.733c1.313-0.812,2.574-1.741,3.715-2.881c0.12-0.117,0.199-0.262,0.312-0.384   c-0.581-0.868-1.008-1.798-1.471-2.719c-1.008,0.336-2.038,0.624-3.1,0.834c-0.002,0.165-0.048,0.318-0.048,0.484   C42.771,64.683,43.006,66.228,43.362,67.733z" fill="#7adac0" style=""></path><path d="M36.148,53.922c-1.139,1.14-2.068,2.4-2.88,3.717c1.503,0.355,3.051,0.59,4.663,0.59c0.166,0,0.318-0.044,0.484-0.048   c0.209-1.06,0.495-2.094,0.833-3.102c-0.918-0.463-1.848-0.886-2.716-1.471C36.411,53.726,36.269,53.805,36.148,53.922z" fill="#7adac0" style=""></path><path d="M38.415,42.821c-0.166-0.006-0.319-0.05-0.484-0.05c-1.612,0-3.159,0.236-4.663,0.591c0.812,1.318,1.739,2.578,2.88,3.717   c0.12,0.118,0.262,0.196,0.384,0.314c0.868-0.583,1.797-1.008,2.716-1.471C38.91,44.916,38.625,43.881,38.415,42.821z" fill="#7adac0" style=""></path><path d="M42.771,37.934c0,0.166,0.046,0.318,0.048,0.484c1.062,0.21,2.092,0.498,3.1,0.834c0.462-0.921,0.89-1.851,1.471-2.719   c-0.113-0.123-0.192-0.267-0.312-0.385c-1.141-1.139-2.402-2.066-3.715-2.879C43.006,34.774,42.771,36.319,42.771,37.934z" fill="#7adac0" style=""></path><path d="M57.635,33.27c-1.314,0.812-2.575,1.74-3.718,2.879c-0.118,0.118-0.195,0.262-0.309,0.385   c0.579,0.868,1.007,1.798,1.469,2.719c1.008-0.336,2.038-0.624,3.099-0.834c0.004-0.166,0.052-0.318,0.052-0.484   C58.228,36.319,57.993,34.774,57.635,33.27z" fill="#7adac0" style=""></path><path d="M63.063,42.771c-0.166,0-0.314,0.044-0.48,0.05c-0.209,1.06-0.498,2.095-0.838,3.102c0.921,0.463,1.851,0.888,2.719,1.471   c0.122-0.118,0.266-0.196,0.384-0.314c1.139-1.139,2.067-2.398,2.883-3.717C66.226,43.008,64.678,42.771,63.063,42.771z" fill="#7adac0" style=""></path><path d="M48.074,49.493c-0.035,0.676-0.035,1.339,0,2.012c0.452,0.502,0.921,0.969,1.42,1.423c0.671,0.034,1.335,0.034,2.007,0   c0.5-0.454,0.972-0.926,1.423-1.423c0.035-0.673,0.033-1.336,0-2.008c-0.451-0.502-0.921-0.969-1.42-1.423   c-0.673-0.035-1.34-0.035-2.012,0C48.995,48.528,48.524,48.995,48.074,49.493z" fill="#7adac0" style=""></path><path d="M64.464,53.608c-0.868,0.585-1.798,1.008-2.719,1.471c0.34,1.008,0.628,2.042,0.838,3.102   c0.166,0.004,0.314,0.048,0.48,0.048c1.615,0,3.163-0.234,4.668-0.59c-0.816-1.316-1.745-2.577-2.883-3.717   C64.73,53.805,64.586,53.726,64.464,53.608z" fill="#7adac0" style=""></path><path d="M72.271,55.926c2.583-1.327,4.827-3.173,6.615-5.425c-1.788-2.252-4.031-4.098-6.615-5.425   c-1.091,1.929-2.357,3.784-3.998,5.425C69.914,52.142,71.179,53.996,72.271,55.926z" fill="#7adac0" style=""></path><path d="M62.138,31.245c0.585,2.133,0.925,4.367,0.925,6.688c2.322,0,4.555,0.341,6.689,0.93c0.868-2.745,1.143-5.603,0.82-8.436   C67.74,30.104,64.879,30.375,62.138,31.245z" fill="#7adac0" style=""></path><path d="M50.498,22.11c-2.253,1.794-4.099,4.033-5.424,6.616c1.927,1.096,3.782,2.361,5.424,4.002   c1.644-1.641,3.498-2.906,5.426-4.002C54.597,26.144,52.752,23.904,50.498,22.11z" fill="#7adac0" style=""></path><path d="M37.931,37.934c0-2.321,0.34-4.556,0.927-6.688c-2.74-0.87-5.601-1.141-8.432-0.817c-0.323,2.833-0.05,5.69,0.817,8.436   C33.377,38.274,35.612,37.934,37.931,37.934z" fill="#7adac0" style=""></path><path d="M22.108,50.501c1.794,2.252,4.034,4.098,6.618,5.425c1.091-1.93,2.356-3.784,3.999-5.425   c-1.643-1.641-2.908-3.496-4.001-5.425C26.143,46.403,23.902,48.249,22.108,50.501z" fill="#7adac0" style=""></path><path d="M38.858,69.757c-0.587-2.133-0.927-4.367-0.927-6.688c-2.319,0-4.553-0.341-6.688-0.93   c-0.868,2.745-1.14,5.604-0.817,8.436C33.257,70.896,36.118,70.627,38.858,69.757z" fill="#7adac0" style=""></path><path d="M50.498,78.891c2.255-1.793,4.1-4.032,5.426-6.616c-1.929-1.095-3.782-2.36-5.426-4c-1.642,1.64-3.497,2.905-5.424,4   C46.401,74.858,48.245,77.098,50.498,78.891z" fill="#7adac0" style=""></path><path d="M63.063,63.068c0,2.321-0.34,4.556-0.925,6.688c2.741,0.87,5.602,1.139,8.435,0.817c0.323-2.832,0.048-5.695-0.82-8.436   C67.618,62.728,65.385,63.068,63.063,63.068z" fill="#7adac0" style=""></path><path d="M87.425,44.026c-0.571,2.304-1.457,4.476-2.614,6.475c1.157,1.999,2.043,4.177,2.614,6.475   C88.844,52.771,88.844,48.231,87.425,44.026z" fill="#7adac0" style=""></path><path d="M81.233,29.05c-1.981-4.041-5.244-7.301-9.286-9.282c1.249,2.063,2.147,4.268,2.745,6.541   C76.966,26.907,79.165,27.802,81.233,29.05z" fill="#7adac0" style=""></path><path d="M56.971,13.576c-4.204-1.418-8.742-1.418-12.947,0c2.3,0.571,4.473,1.453,6.473,2.614   C52.5,15.029,54.671,14.147,56.971,13.576z" fill="#7adac0" style=""></path><path d="M29.047,19.768c-4.042,1.981-7.301,5.241-9.284,9.282c2.066-1.248,4.268-2.143,6.541-2.741   C26.904,24.035,27.798,21.831,29.047,19.768z" fill="#7adac0" style=""></path><path d="M13.571,56.973c0.574-2.3,1.458-4.473,2.616-6.472c-1.159-1.999-2.04-4.171-2.616-6.472   C12.158,48.231,12.158,52.771,13.571,56.973z" fill="#7adac0" style=""></path><path d="M19.765,71.952c1.981,4.041,5.24,7.297,9.279,9.282c-1.248-2.068-2.141-4.269-2.741-6.542   C24.031,74.095,21.829,73.2,19.765,71.952z" fill="#7adac0" style=""></path><path d="M44.024,87.426c4.205,1.418,8.746,1.418,12.947,0c-2.3-0.572-4.472-1.453-6.474-2.614   C48.498,85.973,46.324,86.854,44.024,87.426z" fill="#7adac0" style=""></path><path d="M71.952,81.234c4.037-1.985,7.3-5.241,9.281-9.282c-2.068,1.248-4.267,2.143-6.541,2.74   C74.095,76.966,73.2,79.166,71.952,81.234z" fill="#7adac0" style=""></path></g><desc>Created with Snap</desc><defs></defs></g><g><g transform="matrix(1.024,0,0,-1.024,0,0)"><path d="M52 0L52 626L257 626Q350 626 350 538L350 330Q350 242 257 242L142 242L142 0L52 0ZM260 344L260 524Q260 542 254 547Q248 553 230 553L142 553L142 314L230 314Q248 314 254 320Q260 326 260 344ZM513 488L611 488Q705 488 705 399L705 216L508 216L508 100Q508 83 514 77Q520 71 538 71L584 71Q602 71 608 77Q614 83 614 101L614 141L702 141L702 88Q702 0 609 0L513 0Q420 0 420 88L420 399Q420 488 513 488ZM508 388L508 282L616 282L616 388Q616 405 610 411Q605 417 587 417L538 417Q520 417 514 411Q508 405 508 388ZM869 488L976 488Q1069 488 1069 399L1069 88Q1069 0 976 0L869 0Q777 0 777 88L777 399Q777 488 869 488ZM980 101L980 387Q980 405 974 411Q968 417 950 417L895 417Q877 417 871 411Q866 405 866 387L866 101Q866 83 871 77Q877 71 895 71L950 71Q968 71 974 77Q980 83 980 101ZM1304 488L1339 488Q1430 488 1430 399L1430 88Q1430 0 1339 0L1304 0Q1255 0 1242 39L1242 -138L1152 -138L1152 488L1242 488L1242 449Q1255 488 1304 488ZM1340 102L1340 386Q1340 404 1334 409Q1328 415 1310 415L1275 415Q1257 415 1249 407Q1242 399 1242 380L1242 108Q1242 89 1249 81Q1257 73 1275 73L1310 73Q1328 73 1334 78Q1340 84 1340 102ZM1602 669L1602 0L1512 0L1512 669L1602 669ZM1781 488L1879 488Q1973 488 1973 399L1973 216L1776 216L1776 100Q1776 83 1782 77Q1788 71 1806 71L1852 71Q1870 71 1876 77Q1882 83 1882 101L1882 141L1970 141L1970 88Q1970 0 1877 0L1781 0Q1688 0 1688 88L1688 399Q1688 488 1781 488ZM1776 388L1776 282L1884 282L1884 388Q1884 405 1878 411Q1873 417 1855 417L1806 417Q1788 417 1782 411Q1776 405 1776 388ZM2346 538L2346 430L2254 430L2254 526Q2254 544 2248 549Q2243 555 2225 555L2174 555Q2156 555 2150 549Q2144 544 2144 526L2144 99Q2144 81 2150 75Q2156 70 2174 70L2225 70Q2243 70 2248 75Q2254 81 2254 99L2254 194L2346 194L2346 88Q2346 -1 2252 -1L2146 -1Q2053 -1 2053 88L2053 538Q2053 626 2146 626L2252 626Q2346 626 2346 538ZM2514 488L2621 488Q2714 488 2714 399L2714 88Q2714 0 2621 0L2514 0Q2422 0 2422 88L2422 399Q2422 488 2514 488ZM2625 101L2625 387Q2625 405 2619 411Q2613 417 2595 417L2540 417Q2522 417 2516 411Q2511 405 2511 387L2511 101Q2511 83 2516 77Q2522 71 2540 71L2595 71Q2613 71 2619 77Q2625 83 2625 101ZM2949 488L2984 488Q3075 488 3075 399L3075 0L2985 0L2985 386Q2985 404 2979 409Q2973 415 2955 415L2920 415Q2902 415 2894 407Q2887 399 2887 380L2887 0L2797 0L2797 488L2887 488L2887 449Q2900 488 2949 488ZM3314 488L3349 488Q3440 488 3440 399L3440 0L3350 0L3350 386Q3350 404 3344 409Q3338 415 3320 415L3285 415Q3267 415 3259 407Q3252 399 3252 380L3252 0L3162 0L3162 488L3252 488L3252 449Q3265 488 3314 488ZM3618 488L3716 488Q3810 488 3810 399L3810 216L3613 216L3613 100Q3613 83 3619 77Q3625 71 3643 71L3689 71Q3707 71 3713 77Q3719 83 3719 101L3719 141L3807 141L3807 88Q3807 0 3714 0L3618 0Q3525 0 3525 88L3525 399Q3525 488 3618 488ZM3613 388L3613 282L3721 282L3721 388Q3721 405 3715 411Q3710 417 3692 417L3643 417Q3625 417 3619 411Q3613 405 3613 388ZM4163 399L4163 334L4074 334L4074 386Q4074 404 4068 409Q4062 415 4044 415L4001 415Q3983 415 3977 409Q3971 404 3971 386L3971 102Q3971 84 3977 78Q3983 73 4001 73L4044 73Q4062 73 4068 78Q4074 84 4074 102L4074 154L4163 154L4163 88Q4163 0 4069 0L3974 0Q3881 0 3881 88L3881 399Q3881 488 3974 488L4069 488Q4163 488 4163 399ZM4403 488L4403 415L4336 415L4336 106Q4336 88 4341 82Q4347 77 4365 77L4403 77L4403 0L4339 0Q4245 0 4245 88L4245 415L4199 415L4199 488L4245 488L4245 571L4336 571L4336 488L4403 488Z" fill="#210070" style=""></path></g></g></g></svg>